<svg width="40" height="40" viewBox="0 0 30 30" fill="none" xmlns="http://www.w3.org/2000/svg">
<path d="M29.5166 15.0005C29.5166 23.0175 23.0175 29.5166 15.0005 29.5166C6.98347 29.5166 0.484375 23.0175 0.484375 15.0005C0.484375 6.98347 6.98347 0.484375 15.0005 0.484375C23.0175 0.484375 29.5166 6.98347 29.5166 15.0005Z" fill="white"/>
<path fill-rule="evenodd" clip-rule="evenodd" d="M15 0.967742C7.2502 0.967742 0.967742 7.2502 0.967742 15C0.967742 22.7498 7.2502 29.0323 15 29.0323C22.7498 29.0323 29.0323 22.7498 29.0323 15C29.0323 7.2502 22.7498 0.967742 15 0.967742ZM0 15C0 6.71573 6.71573 0 15 0C23.2843 0 30 6.71573 30 15C30 23.2843 23.2843 30 15 30C6.71573 30 0 23.2843 0 15Z" fill="#121212"/>
<path fill-rule="evenodd" clip-rule="evenodd" d="M18.6599 16.9262C21.0887 15.5382 22.7398 12.8125 22.7398 9.67698C22.7398 5.13399 19.2736 1.45117 14.9979 1.45117C10.7221 1.45117 7.25592 5.13399 7.25592 9.67698C7.25592 12.7732 8.86599 15.4699 11.2451 16.8735C7.47307 18.8371 4.68881 20.8573 4.38672 24.898C7.03651 27.7392 10.8131 29.5157 15.0046 29.5157C19.1948 29.5157 22.9704 27.7403 25.62 24.9007C25.2924 20.8944 22.2983 18.8738 18.6599 16.9262Z" fill="#121212"/>
</svg>
